<?xml version="1.0" standalone="no"?>
  <!DOCTYPE svg PUBLIC "-//W3C//DTD SVG 20010904//EN"
  "http://www.w3.org/TR/2001/REC-SVG-20010904/DTD/svg10.dtd">
  <svg version="1.0" xmlns="http://www.w3.org/2000/svg"
  width="116.000000pt" height="50.000000pt" viewBox="0 0 116.000000 50.000000"
  preserveAspectRatio="xMidYMid meet">
  <title>Henry Bobby</title>
  <g transform="translate(0.000000,50.000000) scale(0.100000,-0.100000)"
  fill="#000000" stroke="none">
  <path d="M662 478 c-23 -12 -90 -66 -147 -120 -97 -91 -108 -98 -146 -98 l-40
  0 19 28 c27 37 152 156 180 171 23 12 30 31 11 31 -6 0 -24 -11 -41 -25 -36
  -30 -75 -32 -128 -5 -22 11 -58 20 -81 20 -33 0 -47 -6 -75 -34 -40 -40 -47
  -89 -15 -106 42 -22 118 -5 150 34 19 23 -1 20 -44 -5 -26 -16 -44 -20 -70
  -15 -45 9 -47 36 -6 77 34 34 75 38 124 12 17 -9 42 -19 55 -22 22 -6 19 -12
  -56 -95 -68 -76 -92 -95 -161 -129 -45 -21 -104 -60 -131 -86 -57 -54 -65 -87
  -23 -97 46 -12 106 33 229 169 45 49 57 57 88 57 20 0 36 -3 36 -6 0 -3 -13
  -23 -29 -43 -39 -49 -71 -115 -71 -145 0 -46 67 -44 127 4 24 19 24 19 60 -6
  41 -28 126 -33 197 -12 47 14 136 98 206 193 54 74 170 195 187 195 6 0 15
  -10 19 -22 23 -69 -36 -140 -118 -142 -54 -1 -63 -24 -11 -28 31 -2 39 -7 41
  -27 6 -37 -6 -68 -40 -107 -37 -42 -90 -68 -119 -59 -44 14 -5 65 67 86 47 14
  58 29 22 29 -74 -1 -156 -83 -122 -121 39 -43 150 3 200 82 21 34 25 49 20 81
  -6 38 -4 42 38 80 53 46 67 90 43 136 -14 28 -13 31 9 42 12 7 25 19 28 27 4
  10 -1 10 -26 -3 -28 -14 -35 -14 -82 0 -55 16 -223 14 -270 -3 -20 -8 -25 -6
  -29 10 -7 24 -22 24 -75 -3z m7 -75 c-44 -43 -179 -122 -179 -104 0 13 117
  118 170 153 39 25 45 27 49 12 2 -10 -15 -35 -40 -61z m350 52 c12 -3 21 -10
  21 -15 0 -5 -27 -35 -61 -67 -34 -32 -89 -94 -124 -138 -76 -97 -141 -159
  -191 -180 -63 -26 -192 -14 -182 18 3 6 14 13 26 15 22 3 29 17 13 26 -16 10
  -68 -12 -115 -48 -80 -61 -121 -43 -75 34 23 37 129 169 138 171 4 1 15 3 26
  4 12 1 30 7 42 14 37 19 48 13 50 -25 2 -44 16 -61 55 -69 51 -12 111 12 166
  66 46 45 92 121 92 151 0 7 -9 -7 -20 -31 -53 -115 -180 -198 -249 -162 -33
  18 -30 90 7 127 66 68 122 105 170 114 44 8 181 5 211 -5z m-808 -293 c-29
  -42 -107 -111 -138 -123 -18 -6 -30 -6 -36 0 -14 14 57 81 126 121 65 37 74
  37 48 2z"/>
  </g>
</svg>
